# xmcd
#
# Track frame offsets: 
#        182
#        19362
#        39260
#        61262
#        81810
#        103115
#        134007
#        152317
#        167647
#        186592
#        205215
#        223712
#        241657
#
# Disc length: 3630 seconds
#
# Revision: 13
# Processed by: cddbd v1.5.2PL0 Copyright (c) Steve Scherf et al.
# Submitted via: ExactAudioCopy v0.95a5
#
DISCID=af0e2c0d
DTITLE=Chris Rea - The Best Of Chris Rea   New Light Through Old Windo
DTITLE=ws
DYEAR=1988
DGENRE=Rock
TTITLE0=Let's Dance
TTITLE1=Working On It
TTITLE2=Ace Of Hearts
TTITLE3=Josephine
TTITLE4=Candles
TTITLE5=On The Beach
TTITLE6=Fool (If You Think It's Over)
TTITLE7=I Can Hear Your Heartbeat
TTITLE8=Shamrock Diaries
TTITLE9=Stainsby Girls
TTITLE10=Windy Town
TTITLE11=Driving Home For Christmas
TTITLE12=Steel River
EXTD=YEAR: 1988
EXTT0=
EXTT1=
EXTT2=
EXTT3=
EXTT4=
EXTT5=
EXTT6=
EXTT7=
EXTT8=
EXTT9=
EXTT10=
EXTT11=
EXTT12=
PLAYORDER=
